<svg width="23" height="19" viewBox="0 0 23 19" version="1.1" xmlns="http://www.w3.org/2000/svg" xmlns:xlink="http://www.w3.org/1999/xlink">
<title>Vector</title>
<desc>Created using Figma</desc>
<g id="Canvas" transform="translate(-1233 506)">
<g id="Vector">
<use xlink:href="#path0_fill" transform="translate(1233 -506)" fill="#F2711C"/>
</g>
</g>
<defs>
<path id="path0_fill" d="M 13.5 12.9C 14.9 12.3 16 11.4 16.8 10.4C 17.6 9.29999 18 8.19999 18 6.89999C 18 5.59999 17.6 4.49999 16.8 3.39999C 16 2.29999 14.9 1.49999 13.5 0.899994C 12.1 0.299994 10.6 0 9 0C 7.4 0 5.9 0.299994 4.5 0.899994C 3.1 1.49999 2 2.39999 1.2 3.39999C 0.399999 4.49999 -1.52588e-06 5.59999 -1.52588e-06 6.89999C -1.52588e-06 7.99999 0.3 8.99999 0.9 9.89999C 1.5 10.8 2.3 11.6 3.4 12.3C 3.3 12.5 3.2 12.7 3.1 12.9C 3 13.1 2.9 13.3 2.8 13.4C 2.7 13.6 2.6 13.7 2.5 13.8C 2.4 13.9 2.3 14 2.2 14.2C 2 14.4 1.9 14.5 1.9 14.5C 1.9 14.5 1.9 14.5 1.9 14.6L 1.8 14.7C 1.8 14.7 1.8 14.7 1.8 14.8L 1.8 14.9L 1.8 15L 1.8 15.1L 1.8 15.2L 1.8 15.3C 1.8 15.4 1.9 15.5 1.9 15.6C 2 15.7 2.1 15.7 2.2 15.7C 2.6 15.6 3 15.6 3.3 15.5C 4.6 15.1 5.8 14.6 6.9 13.8C 7.7 13.9 8.4 14 9.2 14C 10.6 13.8 12.1 13.5 13.5 12.9ZM 22 13.4C 22.6 12.5 22.9 11.4 22.9 10.4C 22.9 9.29999 22.6 8.3 21.9 7.3C 21.3 6.3 20.4 5.49999 19.3 4.89999C 19.5 5.59999 19.6 6.3 19.6 7C 19.6 8.2 19.3 9.29999 18.7 10.4C 18.1 11.5 17.3 12.4 16.2 13.3C 15.2 14.1 14.1 14.6 12.8 15C 11.5 15.4 10.2 15.6 8.8 15.6C 8.5 15.6 8.2 15.6 7.7 15.5C 9.4 16.7 11.4 17.3 13.8 17.3C 14.5 17.3 15.3 17.2 16.1 17.1C 17.2 17.9 18.3 18.5 19.7 18.8C 20 18.9 20.4 19 20.8 19C 20.9 19 21 19 21.1 18.9C 21.2 18.8 21.2 18.7 21.3 18.6C 21.3 18.5 21.3 18.5 21.3 18.5C 21.3 18.5 21.3 18.5 21.3 18.4C 21.3 18.3 21.3 18.3 21.3 18.3L 21.3 18.2C 21.3 18.2 21.3 18.2 21.3 18.1L 21.3 18C 21.3 18 21.3 18 21.2 17.9L 21.2 17.8C 21.2 17.7 21.1 17.6 20.9 17.5C 20.7 17.3 20.6 17.2 20.6 17.1C 20.5 17 20.4 16.9 20.3 16.7C 20.2 16.5 20.1 16.4 20 16.2C 19.9 16 19.8 15.8 19.7 15.6C 20.5 15.1 21.4 14.3 22 13.4Z"/>
</defs>
</svg>
